<svg width="24" height="24" viewBox="0 0 24 24" fill="none" xmlns="http://www.w3.org/2000/svg">
<path d="M7.49521 4.29494C8.16744 4.52178 8.80673 4.83646 9.3965 5.23082C10.23 5.01749 11.087 4.91047 11.9474 4.9123C12.8358 4.9123 13.693 5.02324 14.4964 5.22993C15.086 4.83595 15.725 4.52157 16.3968 4.29494C17.0205 4.08289 17.9089 3.73931 18.4368 4.32357C18.7947 4.72083 18.8842 5.3865 18.9477 5.89471C19.0193 6.46196 19.0363 7.20101 18.8484 7.93468C19.5669 8.86251 19.9999 9.96929 19.9999 11.1754C19.9999 13.0024 19.0103 14.5888 17.5457 15.6875C16.8404 16.209 16.0587 16.6183 15.2283 16.9007C15.4198 17.3391 15.5263 17.8241 15.5263 18.3332V21.0174C15.5263 21.2547 15.432 21.4822 15.2642 21.65C15.0964 21.8178 14.8688 21.9121 14.6315 21.9121H9.26319C9.02589 21.9121 8.79832 21.8178 8.63052 21.65C8.46273 21.4822 8.36846 21.2547 8.36846 21.0174V20.1307C7.514 20.2354 6.79732 20.1423 6.18802 19.8837C5.55097 19.6135 5.10719 19.1948 4.77345 18.794C4.45672 18.4146 4.11136 17.5592 3.6121 17.3928C3.50059 17.3557 3.3975 17.297 3.30869 17.22C3.21988 17.143 3.1471 17.0493 3.09451 16.9442C2.9883 16.732 2.97075 16.4862 3.04574 16.261C3.12072 16.0358 3.2821 15.8496 3.49435 15.7434C3.70661 15.6372 3.95237 15.6197 4.17757 15.6946C4.77345 15.8933 5.16176 16.3227 5.4275 16.6681C5.85697 17.2228 6.20591 17.9476 6.8859 18.2366C7.16595 18.3556 7.57663 18.4334 8.21904 18.3457L8.36846 18.3153C8.37052 17.8284 8.47191 17.3471 8.66641 16.9007C7.83599 16.6183 7.05429 16.209 6.34907 15.6875C4.8844 14.5888 3.89483 13.0033 3.89483 11.1754C3.89483 9.97108 4.32699 8.8652 5.04366 7.93826C4.85577 7.20459 4.87187 6.46375 4.94345 5.8956L4.94793 5.8616C5.01324 5.34087 5.08929 4.72798 5.45434 4.32357C5.98223 3.73931 6.87159 4.08378 7.49432 4.29583L7.49521 4.29494Z" fill="#373737"/>
</svg>
