<svg width="60" height="60" viewBox="0 0 60 60" fill="none" xmlns="http://www.w3.org/2000/svg">
<path fill-rule="evenodd" clip-rule="evenodd" d="M44.7675 10.1749C46.2027 9.82396 47.7158 9.99279 49.0384 10.6514C50.3609 11.3101 51.4073 12.416 51.992 13.7729C52.5766 15.1298 52.6617 16.6499 52.232 18.0635C51.8024 19.4771 50.8858 20.6929 49.645 21.4949L49.88 22.9699C50.945 26.1649 51.3575 29.6999 51.265 33.0549C51.1575 36.9249 50.15 41.4674 46.605 44.4199C45.9118 44.9994 45.2332 45.5963 44.57 46.2099L43.3825 47.3324L42.4725 48.2174C41.53 49.1374 40.585 50.0599 39.5725 50.9049C37.2125 52.8699 34.6225 54.2624 30.425 54.9649C30.1453 55.0124 29.8597 55.0124 29.58 54.9649C25.38 54.2649 22.79 52.8699 20.43 50.9049C19.7594 50.338 19.109 49.7476 18.48 49.1349L16.6225 47.3324L15.435 46.2074C14.8125 45.6324 14.1425 45.0399 13.4 44.4199C9.85501 41.4674 8.84751 36.9249 8.74001 33.0549C8.63751 29.3799 9.32501 25.7999 9.97001 23.5049L10.1275 22.9599L10.42 22.1149L10.71 21.3399L11.07 20.4374C11.7975 18.6824 12.8875 16.4499 14.2975 14.6874C16.0475 12.4999 19.5275 8.61742 24.7725 6.71242C30.1075 4.77242 36.8475 5.02242 44.7675 10.1749ZM38.885 34.2174L38.81 34.4999C38.545 35.6549 38.085 36.9049 37.3275 37.8474L36.9925 38.2174L36.7575 38.3274C36.17 38.5074 35.3525 38.1824 34.8175 37.8974L33.915 37.3799C33.04 36.8974 31.9325 36.3924 30.59 36.2749L29.99 36.2499C28.355 36.2499 27.06 36.8274 26.0575 37.3899L25.3575 37.7974C24.75 38.1624 23.6925 38.6774 23.0075 38.2224C22.17 37.3849 21.645 36.1749 21.325 35.0049L21.2 34.5049C21.1421 34.1766 21.0191 33.8631 20.8383 33.583C20.6574 33.3028 20.4224 33.0617 20.1469 32.8738C19.8715 32.6859 19.5613 32.555 19.2345 32.4888C18.9077 32.4225 18.5709 32.4224 18.2441 32.4882C17.9172 32.5541 17.6068 32.6847 17.3312 32.8723C17.0556 33.0599 16.8203 33.3008 16.6391 33.5807C16.458 33.8607 16.3346 34.174 16.2764 34.5023C16.2182 34.8306 16.2262 35.1673 16.3 35.4924C16.7675 37.8099 17.795 40.0799 19.4825 41.7674C20.7825 43.0674 22.52 43.3424 23.74 43.3324C24.98 43.3224 26.2775 43.0199 27.205 42.5074L27.525 42.3199L27.85 42.1174C28.42 41.7549 29.02 41.3774 29.665 41.2749L30 41.2499C30.5425 41.2499 31.0575 41.4749 31.55 41.7549L32.135 42.1074C32.3725 42.2574 32.6025 42.3999 32.8325 42.5224C33.7375 43.0074 35.0175 43.3099 36.2525 43.3249C37.4675 43.3399 39.21 43.0749 40.5175 41.7674C42.2025 40.0824 43.23 37.8174 43.7075 35.5024C43.8342 34.8529 43.7008 34.1797 43.3362 33.6275C42.9715 33.0753 42.4046 32.6884 41.7575 32.5499C41.1576 32.428 40.5338 32.5303 40.0043 32.8377C39.4749 33.145 39.0766 33.636 38.885 34.2174ZM25 24.9999C24.337 24.9999 23.7011 25.2633 23.2322 25.7322C22.7634 26.201 22.5 26.8369 22.5 27.4999C22.5 28.163 22.7634 28.7988 23.2322 29.2677C23.7011 29.7365 24.337 29.9999 25 29.9999C25.6631 29.9999 26.2989 29.7365 26.7678 29.2677C27.2366 28.7988 27.5 28.163 27.5 27.4999C27.5 26.8369 27.2366 26.201 26.7678 25.7322C26.2989 25.2633 25.6631 24.9999 25 24.9999ZM35 24.9999C34.337 24.9999 33.7011 25.2633 33.2322 25.7322C32.7634 26.201 32.5 26.8369 32.5 27.4999C32.5 28.163 32.7634 28.7988 33.2322 29.2677C33.7011 29.7365 34.337 29.9999 35 29.9999C35.6631 29.9999 36.2989 29.7365 36.7678 29.2677C37.2366 28.7988 37.5 28.163 37.5 27.4999C37.5 26.8369 37.2366 26.201 36.7678 25.7322C36.2989 25.2633 35.6631 24.9999 35 24.9999ZM18.09 15.7174C17.7709 15.6401 17.4397 15.6264 17.1153 15.6771C16.7909 15.7278 16.4796 15.8419 16.1993 16.0128C15.919 16.1838 15.6751 16.4083 15.4815 16.6736C15.288 16.9388 15.1486 17.2396 15.0713 17.5587C14.9939 17.8778 14.9802 18.209 15.0309 18.5334C15.0816 18.8578 15.1957 19.1691 15.3667 19.4494C15.5377 19.7297 15.7622 19.9736 16.0274 20.1671C16.2926 20.3607 16.5934 20.5001 16.9125 20.5774L18.17 20.8724L19.62 21.1924L20.4025 21.3524L22.06 21.6674C24.62 22.1274 27.475 22.4999 30 22.4999C33.335 22.4999 37.2275 21.8499 40.25 21.2174L41.805 20.8799C42.4461 20.7275 43.001 20.3282 43.3492 19.7688C43.6974 19.2094 43.8107 18.5352 43.6644 17.8927C43.5181 17.2502 43.1241 16.6915 42.568 16.338C42.012 15.9845 41.3388 15.8648 40.695 16.0049C37.61 16.7024 33.345 17.4999 30 17.4999C26.98 17.4999 23.2325 16.8549 20.2875 16.2199L18.77 15.8799C18.5431 15.8267 18.3165 15.7725 18.09 15.7174ZM46.25 14.9999C45.9185 14.9999 45.6005 15.1316 45.3661 15.366C45.1317 15.6005 45 15.9184 45 16.2499C45 16.5814 45.1317 16.8994 45.3661 17.1338C45.6005 17.3682 45.9185 17.4999 46.25 17.4999C46.5815 17.4999 46.8995 17.3682 47.1339 17.1338C47.3683 16.8994 47.5 16.5814 47.5 16.2499C47.5 15.9184 47.3683 15.6005 47.1339 15.366C46.8995 15.1316 46.5815 14.9999 46.25 14.9999Z" fill="#FFF9F9"/>
</svg>
