<svg width="50" height="50" viewBox="0 0 50 50" fill="none" xmlns="http://www.w3.org/2000/svg">
<path d="M8.33342 41.6663C7.18758 41.6663 6.20703 41.2587 5.39175 40.4434C4.57647 39.6281 4.16814 38.6469 4.16675 37.4997V12.4997C4.16675 11.3538 4.57508 10.3733 5.39175 9.55801C6.20841 8.74273 7.18897 8.3344 8.33342 8.33301H41.6668C42.8126 8.33301 43.7938 8.74134 44.6105 9.55801C45.4272 10.3747 45.8348 11.3552 45.8334 12.4997V37.4997C45.8334 38.6455 45.4258 39.6268 44.6105 40.4434C43.7952 41.2601 42.814 41.6677 41.6668 41.6663H8.33342ZM25.0001 27.083L8.33342 16.6663V37.4997H41.6668V16.6663L25.0001 27.083ZM25.0001 22.9163L41.6668 12.4997H8.33342L25.0001 22.9163ZM8.33342 16.6663V12.4997V37.4997V16.6663Z" fill="#FFF9F9"/>
</svg>
