<svg width="1165" height="118" viewBox="0 0 1165 118" fill="none" xmlns="http://www.w3.org/2000/svg">
<path d="M50 0L88.9711 67.5H11.0289L50 0Z" fill="#F5F5F5"/>
<path d="M50 18L93.3013 93H6.69873L50 18Z" fill="#F5F5F5"/>
<rect x="42" y="90" width="16" height="19" fill="#F5F5F5"/>
<path d="M147.864 31L176.597 80.767H119.131L147.864 31Z" fill="#F5F5F5"/>
<path d="M147.864 44.271L179.79 99.5676H115.939L147.864 44.271Z" fill="#F5F5F5"/>
<rect x="141.966" y="97.356" width="11.7966" height="14.0085" fill="#F5F5F5"/>
<path d="M1123.68 13L1155.38 67.9153H1091.97L1123.68 13Z" fill="#F5F5F5"/>
<path d="M1123.68 27.644L1158.91 88.661H1088.45L1123.68 27.644Z" fill="#F5F5F5"/>
<rect x="1117.17" y="86.2202" width="13.0169" height="15.4576" fill="#F5F5F5"/>
<circle cx="1055.21" cy="66.1769" r="10.1769" fill="#F5F5F5"/>
<circle cx="1054.83" cy="89.1692" r="15.8308" fill="#F5F5F5"/>
</svg>
